<?xml version="1.0" encoding="UTF-8" standalone="no"?>
<!-- Created with Inkscape (http://www.inkscape.org/) -->

<svg
   xmlns:dc="http://purl.org/dc/elements/1.1/"
   xmlns:cc="http://creativecommons.org/ns#"
   xmlns:rdf="http://www.w3.org/1999/02/22-rdf-syntax-ns#"
   xmlns:svg="http://www.w3.org/2000/svg"
   xmlns="http://www.w3.org/2000/svg"
   version="1.1"
   width="748"
   height="698"
   id="svg2">
  <defs
     id="defs4" />
  <metadata
     id="metadata7">
    <rdf:RDF>
      <cc:Work
         rdf:about="">
        <dc:format>image/svg+xml</dc:format>
        <dc:type
           rdf:resource="http://purl.org/dc/dcmitype/StillImage" />
        <dc:title></dc:title>
      </cc:Work>
    </rdf:RDF>
  </metadata>
  <g
     transform="translate(574.28573,234.53068)"
     id="layer1">
    <g
       transform="translate(-571.42857,-409.42857)"
       id="layer1-11">
      <g
         transform="translate(-3.5714286,-8.571433)"
         id="layer1-94882">
        <g
           transform="translate(6.4285665,180)"
           id="layer1-9488">
          <g
             transform="matrix(1,0,0,0.6633865,-4.2857314,-0.79970867)"
             id="layer1-1">
            <g
               transform="matrix(1.0194553,0,0,1.4147864,-7.2540243,-0.51411338)"
               id="layer1-948">
              <g
                 transform="matrix(0.91785714,0,0,0.98860939,5.7142594,-291.76296)"
                 id="g3036">
                <g
                   id="layer1-94" />
                <g
                   transform="translate(-357.14289,-66.60714)"
                   id="layer1-9" />
                <g
                   transform="matrix(1.25,0,0,1.25,2.8571429e-5,299.86218)"
                   id="g3049">
                  <path
                     d="M 0,0 640,0 640,602 0,602 0,0 z"
                     id="path4"
                     style="fill:#ddad66" />
                  <path
                     d="m 10.5,10.52 c 11.68,0.54 23.36,-0.51 35.04,0.17 36.82,0.34 73.66,-0.54 110.48,0.16 10.01,-0.83 20.02,0.47 30.03,-0.06 14.64,-0.31 29.3,-0.26 43.95,-0.04 26.97,-0.24 53.95,0.01 80.92,-0.17 13.69,-0.13 27.37,0.6 41.05,0.14 16.67,0.61 33.32,-0.49 49.99,-0.08 10.33,-0.35 20.66,0.54 30.98,-0.07 37.01,0.15 74.03,-0.15 111.04,0.25 11.01,1.3 22.03,-1.24 33.01,0.3 12.65,-0.02 25.3,-0.44 37.96,-0.25 5.37,-0.01 10.79,-0.77 16.14,0.05 2.1,1.76 1.19,4.71 1.33,7.08 -0.66,11.36 1.39,22.83 -1.03,34.05 2.13,8.52 3.31,17.39 2.87,26.19 -2.02,3.48 -3.58,7.62 -2.56,11.67 1.97,8.58 0.12,17.43 0.77,26.1 0.28,2.5 2.94,5.11 1.06,7.48 -2.46,3.4 -2.02,7.66 -2.22,11.62 -1.4,-7.65 0,-15.45 -0.71,-23.16 -0.41,7.7 -0.27,15.42 -0.07,23.12 0,49.96 -0.47,99.91 -0.31,149.87 0.03,27.37 -0.04,54.75 -0.03,82.12 -0.7,25 -0.21,50.01 -0.51,75.01 0.05,48.32 -0.72,96.64 -0.24,144.96 0.35,1.94 -2.05,2.44 -3.47,2.37 -17.32,0.21 -34.62,-0.71 -51.93,-0.86 -13.69,0.78 -27.42,-0.64 -41.08,0.84 -12.31,-0.68 -24.68,-1.83 -36.99,-0.47 -7.96,-0.3 -15.89,0.96 -23.85,0.33 -3.06,-0.32 -6.13,-0.24 -9.19,-0.05 -15.63,-1.11 -31.34,-0.41 -47,-0.51 -7.29,1.36 -14.57,-0.58 -21.9,-0.05 -14.69,0.37 -29.44,-0.94 -44.07,0.7 -7.59,0.07 -15.18,-0.22 -22.76,-0.08 0.15,0.57 0.47,1.71 0.63,2.28 -1.87,-1.79 -4.33,-2.46 -6.88,-2.27 -15.31,0.21 -30.62,0.04 -45.93,0.08 -7.71,0.44 -15.34,-1.15 -23.05,-0.68 -9.65,-0.69 -19.31,0.32 -28.97,0.01 -12.68,0.32 -25.35,-0.9 -38.02,-0.11 -12.33,1.31 -24.78,-0.79 -37.12,0.66 -5.6,0.69 -11.2,-0.61 -16.81,-0.09 -10.35,0.76 -20.71,-0.2 -31.07,0.07 -21.64,0.56 -43.26,-0.16 -64.9,0.02 -8.16,-0.1 -16.31,0.23 -24.46,-0.11 0.11,-44.7 -0.22,-89.41 0.12,-134.12 -0.53,-19.65 0.23,-39.31 -0.08,-58.96 0.28,-20.34 -0.4,-40.67 -0.01,-61 0,-34.32 0.07,-68.65 -0.14,-102.97 0.51,-17.69 -0.13,-35.38 0.1,-53.06 -0.26,-29.01 0.2,-58.01 0.14,-87.02 -0.5,-27.15 0.34,-54.31 -0.25,-81.46 z"
                     id="path6"
                     style="fill:#dcdad7" />
                  <path
                     d="m 131.65,17.72 c 1.04,0.01 2.08,0.02 3.12,0.03 l -0.11,0.38 c -10.77,33.01 -13.05,68.8 -5.78,102.8 4.83,22.92 13.89,44.92 26.47,64.68 18.41,27.24 42.66,51.02 71.83,66.49 0.59,-2.19 1.18,-4.38 1.77,-6.57 0.83,0.02 2.47,0.04 3.3,0.05 -0.73,2.64 -2.34,5.3 -2.03,8.08 3.28,2.34 7.24,3.45 10.67,5.54 l 1.25,1.85 c -0.56,0.29 -1.67,0.87 -2.22,1.16 -31.77,-14.72 -60,-37.39 -80.44,-65.89 -27.06,21.69 -53.83,43.71 -80.69,65.64 -0.81,-0.84 -1.63,-1.68 -2.44,-2.52 11.36,-9.64 23.28,-18.6 34.64,-28.24 1.82,-1.57 3.69,-3.08 5.58,-4.56 13.63,-10.82 27.02,-21.94 40.62,-32.8 -10.37,-15.41 -19.15,-31.97 -24.94,-49.66 -6.87,-20.97 -10.87,-43.03 -10.5,-65.15 -0.12,-20.66 3.71,-41.18 9.77,-60.88 l 0.13,-0.43 z"
                     id="path8"
                     style="fill:#363129" />
                  <path
                     d="m 21.07,18.31 c 10.92,-0.15 21.85,0.2 32.76,-0.09 -0.09,74.12 -0.26,148.25 -0.67,222.37 -11.77,0.08 -23.55,0.04 -35.32,-0.01 0.86,-5.83 0.43,-11.73 0.5,-17.6 -0.14,-10.99 0.38,-21.98 -0.16,-32.96 -0.7,-7 -0.43,-14.04 -0.47,-21.06 -0.01,-25 0.01,-49.99 0.04,-74.98 0.61,-13.87 0.63,-27.75 0.47,-41.62 0.34,0.06 1.03,0.18 1.37,0.24 -0.54,-10.24 1.13,-20.64 -0.96,-30.74 0.66,-1.28 1.58,-2.4 2.44,-3.55 z"
                     id="Left3"
                     style="fill:#e9c6af" />
                  <path
                     d="m 111.25,22.4375 c -11.5375,0.5375 -23.10625,0.7 -34.65625,0.1875 -0.0375,9.125 -0.525,18.25 -0.5,27.375 -0.1,82.95 -0.225,165.89375 -0.25,248.84375 5.9,8.9625 12.86875,17.1125 19.59375,25.4375 14.2,-12.05 29.1125,-23.23125 43.3125,-35.28125 2.275,-1.9625 4.60625,-3.8375 6.96875,-5.6875 -1.01875,0 -2.04063,-0.0422 -3.0625,-0.0312 1.025,-0.0156 2.04375,0 3.0625,0 17.0375,-13.525 33.78125,-27.425 50.78125,-41 -12.9625,-19.2625 -23.95,-39.95 -31.1875,-62.0625 -8.5875,-26.2125 -13.5875,-53.7875 -13.125,-81.4375 -0.15,-25.825 4.64375,-51.46875 12.21875,-76.09375 -17.7125,0.1375 -35.44375,0.4625 -53.15625,-0.25 z"
                     transform="scale(0.8,0.8)"
                     id="Left1624"
                     style="fill:#e9c6af" />
                  <path
                     d="m 320.90625,209.4375 c -3.0875,9.9 -6.26875,19.74375 -9.28125,29.65625 -2.05,5.9 -2.20625,12.225 -1.53125,18.375 5.0125,-7.7375 9.60625,-15.86875 16.21875,-22.40625 4.525,-5.1375 10.2875,-8.83125 15.3125,-13.40625 -7.125,-3.7125 -14.04375,-7.78125 -20.71875,-12.21875 z M 476.5,209.5 c -6.0375,4.15 -12.4125,7.76875 -18.8125,11.34375 5.825,5.1 12.2375,9.59375 17.0625,15.71875 6.425,6.8 10.46875,15.25625 14.71875,23.46875 0.0875,-3.3625 0.35625,-6.75625 -0.15625,-10.09375 -4.225,-13.5 -8.3375,-27.0125 -12.8125,-40.4375 z m -29.625,15.90625 C 416.9,236.68125 382.925,237.5 352.875,226 l -0.0625,-0.0312 c -5.125,3.2875 -10.41875,6.48125 -14.71875,10.84375 -16.2,15.8875 -27.64375,37.475 -28.46875,60.4375 5.95,0.4625 11.925,-0.375 17.875,0.1875 12.475,1.2125 25,-0.0625 37.5,0.625 41.2,0.45 82.4125,-0.075 123.625,0.4375 -0.15,-8.4 -1.45625,-16.75625 -3.90625,-24.78125 -6,-20.125 -20.04375,-37.35 -37.84375,-48.3125 z M 346.65625,306.9375 c -12.4623,0.0129 -24.9125,0.0562 -37.375,0.0937 0.425,7.325 1.68125,14.55625 3.53125,21.65625 16.775,6.5625 34.275,11.25 52.125,13.6875 40.6375,5.5125 83.025,1.3875 121.0625,-14.3125 1.75,-6.4875 2.35625,-13.44375 2.40625,-20.21875 -9.8625,-0.025 -19.74375,0.2 -29.59375,-0.625 -37.37812,-0.225 -74.76934,-0.31993 -112.15625,-0.28125 z m -56.34375,0.0312 c -0.9125,3.3 -2.91875,6.61875 -2.53125,10.09375 4.1,2.925 9.05625,4.325 13.34375,6.9375 -0.45,-5.625 -1.0875,-11.25 -1.4375,-16.875 -3.125,-0.0625 -6.2625,-0.0937 -9.375,-0.15625 z M 507.5,307.8125 c -3.0625,0.0875 -6.10625,0.1875 -9.15625,0.3125 -0.225,5.1125 -0.65,10.2 -1,15.3125 4.2125,-2.35 9.475,-3.3875 12.875,-6.875 C 509.60625,313.55 508.5,310.7 507.5,307.8125 z"
                     transform="scale(0.8,0.8)"
                     id="Center816"
                     style="fill:#e9c6af" />
                  <path
                     d="m 391.75,154.95 c -8.72,8.13 -18.92,14.61 -29.6,19.85 1.12,0.75 2.275,1.47 3.425,2.2 l 0.575,-0.325 c 5.12,-2.86 10.22,-5.755 15.05,-9.075 3.58,10.74 6.87,21.575 10.25,32.375 0.36,-3.49 0.735,-7.125 -0.125,-10.575 -2.58,-7.95 -5.27,-15.87 -7.6,-23.9 2.74,-2.06 5.49,-4.11 7.95,-6.5 0.11,-1.35 0.135,-2.7 0.075,-4.05 z"
                     id="path3105"
                     style="fill:#000000" />
                  <path
                     d="m 247.375,155.75 c -0.05,1.45 -0.1,2.885 -0.15,4.325 2.28,1.83 4.575,3.615 6.925,5.375 -1.91,7.32 -4.625,14.395 -6.675,21.675 -0.31,6.87 -0.395,13.79 0.175,20.65 0.14,-0.54 0.3,-1.085 0.45,-1.625 L 248.075,206 c -0.54,-4.92 -0.415,-9.98 1.225,-14.7 2.41,-7.93 4.955,-15.83 7.425,-23.75 5.34,3.55 10.875,6.805 16.575,9.775 l 0.65,0.35 c 1.19,-0.81 2.375,-1.625 3.575,-2.425 -8.67,-3.38 -16.335,-8.72 -23.875,-14.05 -2.25,-1.64 -4.245,-3.55 -6.275,-5.45 z"
                     id="path3103"
                     style="fill:#000000" />
                  <path
                     d="m 240.09998,210.41026 c -2.55,8.4 -5.145,16.795 -7.925,25.125 0.03,0.33 0.095,0.97 0.125,1.3 0.34,0.28 1.01,0.86 1.35,1.15 3.14,-4.34 3.705,-9.965 5.825,-14.825 1.27,-4.12 1.025,-8.52 0.625,-12.75 z"
                     id="path3083"
                     style="fill:#000000" />
                  <path
                     d="m 399.34998,225.41026 c -0.72,4.3 -1.3,8.895 0.1,13.125 1.41,0.14 2.83,0.23 4.25,0.25 -1.52,-4.43 -2.81,-8.945 -4.35,-13.375 z"
                     id="path3081"
                     style="fill:#ddad66" />
                  <path
                     d="m -162.71875,255.4375 c -2.55967,-0.008 -5.12772,0.0181 -7.6875,0.0312 -6.14349,0.0316 -12.29689,0.15937 -18.4375,0.46875 -13.4625,41.2625 -16.30625,86 -7.21875,128.5 6.0375,28.65 17.36875,56.14375 33.09375,80.84375 23.0125,34.05 53.31875,63.7875 89.78125,83.125 l 2.21875,-8.21875 c -4.325,0.0625 -8.64375,0.0187 -12.96875,-0.0937 -0.05,-6.6875 0.125,-13.3875 0,-20.0625 -5.725,-0.125 -12.03125,1.125 -16.90625,-2.625 0.975,-2 1.15,-4.68125 3.1875,-5.96875 4.5625,-0.65 9.19375,-0.26875 13.78125,-0.53125 0.1,-13.3125 0.09375,-26.625 0.03125,-39.9375 -4.05,-0.0375 -8.11875,0.31875 -12.15625,-0.0312 -2.67495,-0.8626 -5.34375,-3.53125 -4.09375,-6.53125 4.0375,-4.825 10.9,-2.40625 16.3125,-2.65625 0.125,-12.2625 -0.175,-24.51875 -0.1875,-36.78125 -5.625,0.0375 -11.425,0.3125 -16.625,-2.1875 0.375,-2.425 -0.5875,-5.84375 2.375,-6.90625 4.5875,-1.3375 9.5125,-0.46875 14.25,-0.65625 0.175,-12.175 -0.375,-24.35 0.5,-36.5 -4.55,0.225 -9.10625,0.6375 -13.65625,0.1875 -4.0125,-0.35 -5.1375,-7.0125 -1.25,-8.375 4.9,-1.4875 10.03125,0.24375 15.03125,0.34375 -0.3625,-4.2625 -0.3,-8.5875 -1.0625,-12.8125 -4.15,-1.475 -8.53125,-0.4625 -12.78125,-0.375 -2.8875,0.2625 -5.3125,-3.04375 -4.0625,-5.71875 1.45,-3.6375 6.16875,-2.63125 9.28125,-2.96875 -0.75,-13.125 -0.9,-26.43125 1.875,-39.34375 1.2625,-7.4125 3.85,-14.46875 5.9375,-21.65625 0.025,-10.625 0.2,-21.28125 -0.3125,-31.90625 -5.5,0.0625 -11.0125,0.25 -16.5,0 -12.8875,-0.9875 -25.81875,-0.3875 -38.71875,-0.5625 -7.68164,0.0469 -15.35224,-0.0689 -23.03125,-0.0937 z m 88.53125,146.09375 c -1.075,10.125 -0.0062,20.26875 -0.15625,30.40625 0.0375,32.7375 0.3375,65.48125 0.1875,98.21875 5.5,1.65 8.6875,0.71875 8.6875,0.71875 l 0.3125,-0.1875 c -0.438344,-0.37464 -1.216892,-1.03891 -1.625,-1.375 -0.0375,-0.4125 -0.11875,-1.2125 -0.15625,-1.625 3.475,-10.4125 6.71875,-20.90625 9.90625,-31.40625 0.7375,-10.1625 0.025,-20.35625 -0.0625,-30.53125 0.625,-13.625 0.1875,-27.26875 0.375,-40.90625 -6.4625,-7.2375 -12.61875,-14.875 -17.46875,-23.3125 z m 9.03125,129.15625 c 0.01814,0.0155 0.04561,0.0481 0.0625,0.0625 0.729949,-1.40747 1.035051,-2.03942 1.21875,-2.40625 -0.419172,0.7675 -1.25,2.3125 -1.25,2.3125 l -0.03125,0.0312 z M -48.125,433.34375 c 0.0875,11.275 0.1625,22.5375 0.3125,33.8125 2.5625,-9.1 5.95625,-17.9125 8.34375,-27.0625 -2.9375,-2.2 -5.80625,-4.4625 -8.65625,-6.75 z"
                     transform="matrix(0.8,0,0,0.8,285.71429,-186.60403)"
                     id="Left816"
                     style="fill:#e9c6af" />
                  <path
                     d="m 225.42,18.13 c 2.35,0.1 4.71,0.21 7.06,0.34 -2.49,3.4 -4.84,6.91 -6.82,10.63 -0.1,-3.66 -0.15,-7.32 -0.24,-10.97 z"
                     id="path16"
                     style="fill:#ddad66" />
                  <path
                     d="m 232.48,18.47 c 1.28,-0.76 2.78,-1.01 4.52,-0.75 l -0.86,1.07 c -4.1,5.09 -7.63,10.67 -10.36,16.61 -0.17,-2.09 -0.39,-4.2 -0.12,-6.3 1.98,-3.72 4.33,-7.23 6.82,-10.63 z"
                     id="path18"
                     style="fill:#363129" />
                  <path
                     d="m 500.65625,321.78125 c -1.8125,4.55 -1.0875,9.51875 -1.1875,14.28125 -0.0125,26.2875 -0.36875,52.575 -0.15625,78.875 0,22.6875 -0.575,45.40625 0.1875,68.09375 5.8375,-7.2125 11.31875,-14.825 15.40625,-23.1875 -0.5,-39.15 -0.1375,-78.31875 -0.625,-117.46875 -2.6,-6.35 -6.76875,-11.84375 -10.59375,-17.46875 -0.9125,-1.15 -1.74375,-2.3875 -3.03125,-3.125 z m -48,0.375 c -4.22031,5.9e-4 -8.4375,0.15 -12.65625,0.53125 -43.55,0.2625 -87.11875,-0.025 -130.65625,0.1875 -0.325,57.225 -0.225,114.44375 -0.125,171.65625 2.5375,2.375 5.03125,4.79375 7.84375,6.84375 9.425,6.6625 19.00625,13.3375 29.84375,17.5625 31.8,-18.9625 73.86875,-19.5875 105.78125,-0.5625 13.35,-6.55 26.1,-14.65 37,-24.8125 -0.525,-9.175 0.30625,-18.375 -0.0312,-27.5625 0.0125,-13.7 -0.36875,-27.41875 0.71875,-41.09375 0.05,-34.0375 0.31875,-68.075 0.28125,-102.125 -12.675,0.59062 -25.33906,-0.62676 -38,-0.625 z M 300.1875,322.25 c -1.675,0.325 -3.3625,0.59375 -5,1.09375 -5.125,6.3625 -9.55625,13.35625 -12.96875,20.78125 -0.4125,10.65 0.0437,21.3375 -0.15625,32 0.4375,27.7875 -0.0625,55.58125 0.4375,83.34375 4.575,9.3875 10.66875,17.98125 17.59375,25.78125 0.55,-6.375 0.30625,-12.75 0.21875,-19.125 0.1125,-45.4125 0.20625,-90.81875 0.21875,-136.21875 -0.0375,-2.55 -0.18125,-5.11875 -0.34375,-7.65625 z M 524.25,366.6875 c -0.6875,3.475 -1.04375,7.04375 -0.90625,10.59375 0.3375,12.7875 -0.14375,25.55625 0.34375,38.34375 1.5625,0.0875 3.14375,0.2 4.71875,0.3125 1.4375,-16.4875 0.70625,-33.3625 -4.15625,-49.25 z M 272.90625,367 c -3.8375,15.9 -5.54375,32.40625 -3.59375,48.71875 0.975,-0.05 2.93125,-0.11875 3.90625,-0.15625 -0.2625,-16.1875 0.45,-32.3875 -0.3125,-48.5625 z M 400.875,513.5 c -9.20449,0.0328 -18.44375,1.00938 -27.3125,3.53125 -5.1875,1.55 -10.525,3.0875 -14.9375,6.375 25.8,8.7375 54.375,8.15625 80.3125,0.28125 1.45,-0.3125 2.95,-0.475 4.4375,-0.5 -10.6875,-4.3875 -21.65,-8.7 -33.3125,-9.4375 -3.05313,-0.17188 -6.11934,-0.26094 -9.1875,-0.25 z"
                     transform="matrix(0.8,0,0,0.8,-2.2857143e-5,-239.88974)"
                     id="Center08"
                     style="fill:#e9c6af" />
                  <path
                     d="m 632.375,322.75 c -36.0375,0.5375 -72.075,-0.075 -108.125,0.1875 0.2875,9.75 -1.55625,19.45 -0.84375,29.1875 5.6375,14.85 9.39375,30.55 9.34375,46.5 0.2375,4.9125 -0.68125,9.8875 0.15625,14.75 0.5125,-0.475 1.5375,-1.43125 2.0625,-1.90625 -0.2625,0.95 -0.49375,1.9125 -0.71875,2.875 -0.4375,0.2625 -1.29375,0.76875 -1.71875,1.03125 3.4875,0.6 8.4125,-0.675 10.5625,3 0.2,1.9875 0.2125,4.325 -1.5625,5.625 -3.5,0.6625 -7.0875,0.35 -10.625,0.375 -0.8625,3.7875 -1.7625,7.6375 -1.625,11.5625 -1.5,0.1625 -2.98125,0.31875 -4.46875,0.46875 0.4375,-3.0375 1.01875,-6.05 1.53125,-9.0625 -0.35,-1.0125 -1.075,-3.01875 -1.4375,-4.03125 -2.0875,4.45 -0.73125,9.425 -0.78125,14.125 5.325,-0.3125 10.69375,-1.3 16.03125,-0.4375 3.85,0.9875 3.875,6.93125 0.25,8.21875 -5.625,0.875 -11.38125,0.33125 -17.03125,-0.0312 0.05,12.2875 0.925,24.55625 0.625,36.84375 4.9375,0.0125 9.8875,-0.525 14.8125,-0.0625 1.9625,0.825 3.23125,2.64375 4.78125,4.03125 -1.4625,1.8625 -2.55625,4.325 -4.90625,5.25 -4.9375,0.2 -9.875,-0.575 -14.8125,-0.4375 -0.425,12.45 0.4625,24.89375 0.1875,37.34375 6.175,0.95 14.11875,-2.45625 18.78125,2.96875 1.2125,2.6625 -0.225,5.475 -2.875,6.4375 -5.275,0.6125 -10.5875,-0.0438 -15.875,0.15625 -0.1,13.275 -0.24375,26.56875 -0.15625,39.84375 5.25,0.3375 10.53125,-0.14375 15.78125,0.34375 3.7875,0.9625 4.475,7.2625 0.25,8.3125 -5.225,0.875 -10.56875,0.15 -15.84375,0.3125 -0.0375,7.1375 0.0375,14.26875 0,21.40625 -4.2,0.0375 -8.425,0.0375 -12.625,-0.1875 0.8875,2.8375 1.79375,5.64375 2.71875,8.46875 40.625,-21.9 75.0375,-55.18125 98.3125,-95.03125 C 646.90625,461.85 654.025,387.725 632.375,322.75 z M 514.46875,468.3125 c -4.3125,7.4625 -9.4375,14.46875 -15.375,20.71875 0.65,10.2875 -1.04375,20.525 -0.65625,30.8125 0.2375,15.65 -0.3875,31.3 0.1875,46.9375 3.075,10.4875 6.9,20.78125 9.5625,31.40625 2.2625,0.075 4.5375,0.1625 6.8125,0.25 -0.35,-33.7 -0.3,-67.39375 -0.25,-101.09375 -0.1875,-9.6875 0.85625,-19.36875 -0.28125,-29.03125 z m -24.875,30.3125 c -3.075,2.9875 -6.5125,5.55 -9.9375,8.125 2.9125,10.0375 6.275,19.9375 9.5,29.875 0.45,-12.6625 0.05,-25.3375 0.4375,-38 z"
                     transform="matrix(0.8,0,0,0.8,-2.2857143e-5,-239.88974)"
                     id="Right816"
                     style="fill:#e9c6af" />
                  <path
                     d="m 505.9,18.32 c 0.81,0 2.43,0.01 3.23,0.02 6.87,21.82 10.41,44.76 9.56,67.66 -0.7,24.44 -6.21,48.67 -15.54,71.25 -5.33,12.63 -12.24,24.53 -19.73,35.99 26.53,21.9 53.34,43.46 80.05,65.14 -0.87,0.85 -1.7,1.71 -2.56,2.55 -26.44,-21.79 -53.09,-43.31 -79.53,-65.09 -11.82,15.51 -25.14,30.03 -40.73,41.83 -10.36,8.02 -21.49,15.02 -33.25,20.78 -3.71,2 -7.78,3.34 -11.22,5.81 -0.8,2.55 -0.18,5.23 0.56,7.72 8.6,28.62 16.95,57.31 25.5,85.94 -0.73,0.22 -2.21,0.66 -2.95,0.87 -5.48,-18.75 -11.22,-37.44 -16.61,-56.23 -2.96,-9.84 -5.53,-19.81 -8.94,-29.51 -0.35,-2.1 0.82,-4.07 1.13,-6.11 0.41,-2.84 0.92,-6.08 3,-8.18 3.37,-1.88 7.58,-2.7 10.3,-5.49 -0.49,-2.41 -1.38,-4.71 -2.18,-7.02 0.8,0.01 2.42,0.04 3.22,0.05 0.71,2.27 1.43,4.53 2.17,6.79 32.5,-17.52 60.02,-44.16 78.64,-76.04 27.5,-47.47 33.2,-106.75 15.88,-158.73 z"
                     id="path28"
                     style="fill:#363129" />
                  <path
                     d="m 509.13,18.34 c 12.97,0.37 25.94,0.04 38.92,0.04 10.32,0.25 20.66,0 30.98,-0.22 0.42,49.26 0.14,98.52 0.48,147.78 0.03,22.69 -0.16,45.38 0.02,68.06 -0.14,1.87 0.29,4.01 -0.9,5.63 -4.6,6.61 -10.4,12.26 -15.16,18.75 -26.71,-21.68 -53.52,-43.24 -80.05,-65.14 7.49,-11.46 14.4,-23.36 19.73,-35.99 9.33,-22.58 14.84,-46.81 15.54,-71.25 0.85,-22.9 -2.69,-45.84 -9.56,-67.66 z"
                     id="Right1624"
                     style="fill:#e9c6af" />
                  <path
                     d="m 586.32,18.38 c 11.23,0.29 22.46,0.16 33.69,0.02 1.02,0.23 3.67,-0.5 3.18,1.46 0.16,72.99 -0.05,145.99 0.07,218.99 -11.73,0.68 -23.48,0.22 -35.21,0.26 l -0.6,0.01 c 0.18,-73.58 -1.31,-147.15 -1.13,-220.74 z"
                     id="Right3"
                     style="fill:#e9c6af" />
                  <path
                     d="m 402.96,20.04 c -0.17,-0.52 -0.52,-1.54 -0.69,-2.05 0.85,0.14 2.53,0.43 3.37,0.57 1.88,2.6 3.61,5.32 5.53,7.89 l 0.28,0.39 c 0.11,2.39 0.12,4.78 -0.02,7.17 -2.08,-5.08 -5.41,-9.47 -8.47,-13.97 z"
                     id="path34"
                     style="fill:#363129" />
                  <path
                     d="m 405.64,18.56 c 1.93,-0.06 3.87,-0.1 5.81,-0.13 -0.05,2.67 -0.13,5.35 -0.28,8.02 -1.92,-2.57 -3.65,-5.29 -5.53,-7.89 z"
                     id="path36"
                     style="fill:#ddad66" />
                  <path
                     d="m 419.39,53.47 c -1,-3.8 -0.85,-7.77 -0.67,-11.66 4.51,11.88 7.53,24.44 7.49,37.2 0.19,3.93 -0.56,7.9 0.11,11.79 0.41,-0.38 1.24,-1.13 1.66,-1.51 -0.21,0.76 -0.4,1.52 -0.58,2.29 -0.35,0.21 -1.03,0.63 -1.37,0.84 -0.82,0.11 -2.48,0.33 -3.31,0.44 1.15,-13.19 0.56,-26.68 -3.33,-39.39 z"
                     id="path38"
                     style="fill:#363129" />
                  <path
                     d="m 218.39,43.79 c 0.26,3.29 0.45,6.64 -0.06,9.92 -3.07,12.72 -4.43,25.93 -2.87,38.98 -1.11,-0.03 -2.21,-0.06 -3.32,-0.1 -0.6,-10.5 -0.71,-21.14 1.51,-31.47 1.01,-5.93 3.07,-11.58 4.74,-17.33 z"
                     id="path40"
                     style="fill:#363129" />
                  <path
                     d="m 273.18,58.39 c 0.28,-2.29 0.65,-5.79 3.76,-5.67 14.99,-0.1 29.99,-0.08 44.99,-0.17 13.35,0.39 26.71,-0.33 40.05,0.35 1.92,-0.07 2.8,1.87 3.96,3.01 -1.18,1.33 -1.8,3.75 -3.91,3.84 -10.39,0.72 -20.83,-0.05 -31.24,0.31 4.05,4.27 7.37,9.83 6.69,15.94 -0.6,9.51 -9.88,17.78 -19.5,16.22 -9.25,-0.81 -16.55,-10.01 -15.54,-19.17 0.32,-5.09 3.29,-9.44 6.76,-12.97 -9.73,-0.3 -19.46,0.06 -29.18,-0.1 -2.38,0.02 -4.65,-0.76 -6.84,-1.59 z"
                     id="path42"
                     style="fill:#ffffff" />
                  <path
                     d="m 316.2,64.32 c 4.31,-1.46 9.99,-0.27 12.21,4.04 1.46,3.58 1.61,7.79 0.33,11.44 -3.26,6.3 -13.35,6.58 -17.13,0.65 -2.76,-5.35 -1.99,-14.05 4.59,-16.13 z"
                     id="path48"
                     style="fill:#000000" />
                  <path
                     d="m 214.22,100.21 c 0.39,-0.19 1.18,-0.57 1.58,-0.77 1.32,2.36 1.85,5.1 2.23,7.75 0.38,1.63 -1.41,1.96 -2.51,2.4 -0.29,-3.09 -2.45,-6.33 -1.3,-9.38 z"
                     id="path50"
                     style="fill:#363129" />
                  <path
                     d="m 421.54,99.56 c 0.79,0.01 2.38,0.04 3.18,0.06 -0.69,3.03 -1.41,6.09 -1.3,9.23 -1.2,0.13 -2.39,0.26 -3.58,0.38 0.35,-2.43 0.83,-4.83 1.24,-7.24 0.12,-0.61 0.34,-1.83 0.46,-2.43 z"
                     id="path52"
                     style="fill:#363129" />
                  <path
                     d="m 226.37,134.62 c -1.07,-2.14 -0.43,-4.65 -0.36,-6.94 3.66,7.51 8.52,14.39 14.06,20.63 0.66,1.53 0.22,3.31 0.27,4.94 -5.17,-5.79 -10.09,-11.88 -13.97,-18.63 z"
                     id="path54"
                     style="fill:#363129" />
                  <path
                     d="m 399.61,146.53 c 4.67,-5.77 9.04,-11.85 12.31,-18.54 0.1,2.24 0.75,4.68 -0.34,6.77 -3.45,5.97 -7.56,11.58 -12.31,16.58 l -0.59,0.62 c 0.17,-1.81 -0.15,-3.84 0.93,-5.43 z"
                     id="path56"
                     style="fill:#363129" />
                  <path
                     d="m 282.31,180.81 c 1.5,-0.55 2.81,-2.62 4.59,-1.97 20.64,6.99 43.51,6.53 64.26,0.23 1.16,-0.25 2.34,-0.38 3.53,-0.4 0.7,0.42 2.11,1.25 2.81,1.67 -23.98,9.02 -51.15,9.67 -75.19,0.47 z"
                     id="path76"
                     style="fill:#363129" />
                  <path
                     d="m 78.79,261.96 c 26.86,-21.93 53.63,-43.95 80.69,-65.64 20.44,28.5 48.67,51.17 80.44,65.89 0.81,0.41 1.62,0.81 2.45,1.2 0.3,2.31 1.02,4.54 2.13,6.6 l -0.06,0.28 c -7.96,29.26 -17,58.23 -25.6,87.32 -33.2,-11.71 -64.6,-28.59 -92.42,-50.16 -16.91,-14.01 -33.5,-28.62 -47.63,-45.49 z"
                     id="LeftCenter1624"
                     style="fill:#e9c6af" />
                  <path
                     d="m 440.65,237.67 c 15.59,-11.8 28.91,-26.32 40.73,-41.83 26.44,21.78 53.09,43.3 79.53,65.09 -8.6,9.73 -18,18.68 -27.31,27.72 -32.04,30.16 -70.08,53.97 -111.36,69.27 -8.55,-28.63 -16.9,-57.32 -25.5,-85.94 -0.74,-2.49 -1.36,-5.17 -0.56,-7.72 3.44,-2.47 7.51,-3.81 11.22,-5.81 11.76,-5.76 22.89,-12.76 33.25,-20.78 z"
                     id="RightCenter1624"
                     style="fill:#e9c6af" />
                  <path
                     d="m 399.35,225.41 c -1.15,-3.84 -0.79,-7.94 -0.44,-11.87 2.46,8.39 5.51,16.62 7.64,25.12 l 0.23,1 c -0.77,-0.22 -2.31,-0.66 -3.08,-0.88 -1.52,-4.43 -2.81,-8.94 -4.35,-13.37 z"
                     id="path86"
                     style="fill:#363129" />
                  <path
                     d="m 588.05,239.11 c 11.73,-0.04 23.48,0.42 35.21,-0.26 0.01,0.87 0.02,2.6 0.03,3.47 -12.54,-0.15 -25.09,-0.2 -37.63,0.02 0.76,-1.09 1.36,-2.35 2.39,-3.23 z"
                     id="path92"
                     style="fill:#363129" />
                  <path
                     d="m 17.84,240.58 c 11.77,0.05 23.55,0.09 35.32,0.01 0.48,0.75 1.45,2.27 1.94,3.03 l -0.98,-0.03 c -12.17,-0.05 -24.35,-0.04 -36.53,0.08 0.06,-0.77 0.19,-2.31 0.25,-3.09 z"
                     id="path94"
                     style="fill:#363129" />
                  <path
                     d="m 557.52,275.5 c 10.4,-10.15 19.22,-21.76 28.14,-33.16 12.54,-0.22 25.09,-0.17 37.63,-0.02 -0.3,24.55 0.32,49.12 -0.57,73.65 0.09,10.88 -0.1,21.75 -0.07,32.62 -7.25,-0.15 -14.49,-0.05 -21.73,-0.23 -1.46,0.14 -3.47,-0.35 -4.39,1.12 -2.35,2.37 0.49,6.29 3.41,6.08 7.64,0.14 15.29,-0.14 22.94,0.21 -0.43,56.07 -0.29,112.13 -0.48,168.21 0.15,19.16 -0.32,38.32 -0.06,57.48 -11.77,0.24 -23.56,-0.09 -35.33,0.07 -8.31,0.41 -16.63,0.17 -24.94,0.01 -27.32,-0.01 -54.64,-0.03 -81.96,-0.1 -5.35,-0.08 -10.73,0.41 -16.06,-0.13 -0.11,-0.5 -0.34,-1.51 -0.45,-2.01 -0.34,0.83 -0.8,1.59 -1.38,2.26 -1.22,-0.77 -2.35,-1.6 -3.49,-2.45 -13.32,-60.81 -25.88,-121.81 -38.94,-182.68 -1.83,-9.34 -4.3,-18.55 -5.75,-27.95 l -0.03,-0.15 c 34.18,-10.28 65.97,-27.52 94.51,-48.83 12.47,-8.63 23.57,-19 34.67,-29.27 5.45,-4.24 9.36,-10 14.33,-14.73 z"
                     id="RightCenter3"
                     style="fill:#e9c6af" />
                  <path
                     d="m 17.59,243.67 c 12.18,-0.12 24.36,-0.13 36.53,-0.08 2.56,1.58 3.63,4.6 5.52,6.83 6.8,8.19 13.38,16.58 20.46,24.54 5.06,5.27 10.27,10.39 15.46,15.52 12.98,13.27 28.15,24.08 43.22,34.81 16.28,10.88 33.12,20.99 50.91,29.22 12.37,5.81 25.29,10.31 38.24,14.65 -10.76,52.38 -22.3,104.61 -33.28,156.95 -4.09,18.52 -7.85,37.1 -11.99,55.61 -9.57,-0.32 -19.13,0.16 -28.69,0.46 -6.65,-0.42 -13.31,-0.75 -19.98,-0.5 -38.13,-0.13 -76.26,0.11 -114.38,-0.33 0.11,-10.71 -0.18,-21.43 0.03,-32.14 -0.46,0.57 -0.92,1.14 -1.39,1.73 0.11,-11.64 0.01,-23.27 -0.07,-34.91 -0.8,-14.65 -0.16,-29.32 -0.49,-43.98 0.37,-21.01 -0.62,-42.05 0.68,-63.03 -0.17,-17.89 0.32,-35.79 -0.44,-53.67 7.46,0.15 14.92,0.04 22.39,0.29 1.1,-1.4 2.79,-2.75 2.35,-4.77 -0.71,-1.2 -1.57,-2.3 -2.41,-3.41 -7.29,0.7 -14.76,1.52 -22.03,0.32 -1.07,-2.78 -0.41,-5.93 -0.56,-8.85 0.08,-31.75 0.11,-63.51 -0.08,-95.26 z"
                     id="LeftCenter3"
                     style="fill:#e9c6af" />
                  <path
                     d="m 250.24,262.97 c 13.42,5.25 27.44,8.98 41.72,10.93 32.51,4.41 66.42,1.13 96.85,-11.43 -0.19,0.9 -0.56,2.71 -0.75,3.61 -32.65,12.56 -68.77,15.87 -103.19,9.7 -11.25,-1.89 -22.17,-5.19 -32.96,-8.81 l -0.51,-0.16 c -0.4,-1.28 -0.79,-2.56 -1.16,-3.84 z"
                     id="path106"
                     style="fill:#363129" />
                  <path
                     d="m 485.0625,632.46875 c -40.8125,15.7 -85.94375,19.8375 -128.96875,12.125 -14.0625,-2.3625 -27.73125,-6.50625 -41.21875,-11.03125 1.6,6.5125 5.075,12.3625 8.5,18.0625 6.85,10.6625 15.69375,20.30625 26.78125,26.65625 19.1,10.975 41.78125,14.96875 63.59375,12.84375 14.3625,-2.2 28.9625,-6.48125 40.5,-15.65625 14.525,-10.55 25.625,-25.775 30.8125,-43 z m 7.125,8.71875 c -3.825,6.5625 -6.625,13.7 -11,19.9375 -7.9,11.1125 -17.81875,21.1625 -30.15625,27.25 -21.4125,11.525 -46.8875,16.15625 -70.8125,11.09375 C 358.94375,695.20625 339.1125,684.025 324.125,668.375 317.5,661.6375 312.9,653.35625 307.75,645.53125 c -10.3375,34.15 -20.63125,68.3375 -30.53125,102.625 13.8625,3.8 27.3125,9.16875 41.5625,11.40625 22.1625,4.775 44.6875,8.75 67.4375,8.375 19.1625,-0.275 38.3875,0.6875 57.5,-1.3125 27.4,-2.7875 54.49375,-8.94375 80.40625,-18.28125 -6.85,-23.4375 -14.04375,-46.79375 -20.78125,-70.28125 -3.7,-12.3 -6.89375,-24.75 -11.15625,-36.875 z"
                     transform="matrix(0.8,0,0,0.8,-2.2857143e-5,-239.88974)"
                     id="Center1624"
                     style="fill:#e9c6af" />
                  <path
                     d="m 244.44,270.29 c 0.74,1.99 2.09,4.07 1.76,6.25 -8.27,27.32 -16.5,54.67 -24.42,82.1 -0.74,-0.26 -2.21,-0.78 -2.94,-1.03 8.6,-29.09 17.64,-58.06 25.6,-87.32 z"
                     id="path110"
                     style="fill:#363129" />
                  <path
                     d="m 227.93,369.16 c 0.99,0.12 1.98,0.25 2.98,0.38 l -0.13,0.7 c -14.6,70.56 -30.32,140.89 -44.66,211.5 -0.87,0 -2.59,-0.02 -3.46,-0.02 4.14,-18.51 7.9,-37.09 11.99,-55.61 10.98,-52.34 22.52,-104.57 33.28,-156.95 z"
                     id="path114"
                     style="fill:#363129" />
                  <path
                     d="m 363.99,379.47 c 15.86,-2.06 31.49,-5.68 46.85,-10.09 9.3,42.51 18.13,85.13 27.3,127.67 5.97,28.2 12.04,56.37 17.75,84.62 -18.93,-0.18 -37.86,-0.17 -56.78,-0.07 -1.94,-28.47 -18.83,-56.63 -45.4,-68.38 -26.26,-11.45 -58.38,-7.89 -81.6,8.89 -15.44,11 -26.54,28.15 -29.92,46.84 -0.87,4.17 -0.87,8.44 -1.36,12.66 -18.24,0.15 -36.48,-0.19 -54.71,0.13 14.34,-70.61 30.06,-140.94 44.66,-211.5 15.31,3.52 30.58,7.47 46.24,9.09 28.82,3.75 58.19,4.7 86.97,0.14 z"
                     id="Center3"
                     style="fill:#e9c6af" />
                  <path
                     d="m 410.84,369.38 c 0.8,-0.23 2.4,-0.68 3.2,-0.9 1.45,9.4 3.92,18.61 5.75,27.95 13.06,60.87 25.62,121.87 38.94,182.68 0.21,0.63 0.65,1.89 0.87,2.52 -1.24,0.01 -2.48,0.02 -3.71,0.04 -5.71,-28.25 -11.78,-56.42 -17.75,-84.62 -9.17,-42.54 -18,-85.16 -27.3,-127.67 z"
                     id="path118"
                     style="fill:#363129" />
                  <path
                     d="m 262.42,541.52 c 14.18,-18.83 38.25,-28.68 61.51,-27.92 11.2,-0.18 21.98,3.66 31.84,8.67 5.43,3.02 10.11,7.2 14.77,11.27 12.7,12.8 18.91,30.51 21.27,48.08 -14.67,-0.37 -29.35,0.76 -44.02,-0.13 -0.78,-8.6 -5.38,-17.18 -13.42,-20.94 -11.69,-6.25 -27.66,-3.69 -36.14,6.69 -3.25,4.14 -4.92,9.24 -6.02,14.32 -14.66,0.2 -29.32,-0.16 -43.97,0.13 0,-14.52 5.14,-28.84 14.18,-40.17 z"
                     id="path120"
                     style="fill:#e9c6af" />
                  <path
                     d="m 309.27,567.19 c 6.6,-3.77 14.96,-3.42 21.7,-0.21 5.45,2.88 8.42,8.64 9.9,14.4 -13.6,0.61 -27.23,-0.01 -40.85,0.28 0.01,-6.13 4.15,-11.47 9.25,-14.47 z"
                     id="path122"
                     style="fill:#e9c6af" />
                </g>
              </g>
            </g>
          </g>
        </g>
      </g>
    </g>
  </g>
</svg>
